<svg width="33" height="23" viewBox="0 0 33 23" fill="none" xmlns="http://www.w3.org/2000/svg">
<path fill-rule="evenodd" clip-rule="evenodd" d="M22.5 3C21.3954 3 20.5 3.89543 20.5 5C20.5 6.10457 21.3954 7 22.5 7C23.6046 7 24.5 6.10457 24.5 5C24.5 3.89543 23.6046 3 22.5 3ZM17.5 6.5C17.576 6.5 17.6507 6.49434 17.7237 6.48342C18.3557 8.52053 20.2551 10 22.5 10C24.7388 10 26.634 8.52855 27.2711 6.5H31.5C32.3284 6.5 33 5.82843 33 5C33 4.17157 32.3284 3.5 31.5 3.5H27.2711C26.634 1.47145 24.7388 0 22.5 0C20.2551 0 18.3557 1.47947 17.7237 3.51658C17.6507 3.50566 17.576 3.5 17.5 3.5H2.5C1.67157 3.5 1 4.17157 1 5C1 5.82843 1.67157 6.5 2.5 6.5H17.5ZM15.2763 19.4834C14.6443 21.5205 12.7449 23 10.5 23C8.26118 23 6.36603 21.5286 5.7289 19.5H1.5C0.671573 19.5 0 18.8284 0 18C0 17.1716 0.671573 16.5 1.5 16.5H5.7289C6.36603 14.4714 8.26118 13 10.5 13C12.7449 13 14.6443 14.4795 15.2763 16.5166C15.3493 16.5057 15.424 16.5 15.5 16.5H30.5C31.3284 16.5 32 17.1716 32 18C32 18.8284 31.3284 19.5 30.5 19.5H15.5C15.424 19.5 15.3493 19.4943 15.2763 19.4834ZM8.5 18C8.5 16.8954 9.39543 16 10.5 16C11.6046 16 12.5 16.8954 12.5 18C12.5 19.1046 11.6046 20 10.5 20C9.39543 20 8.5 19.1046 8.5 18Z" fill="white"/>
</svg>
