<svg width="32" height="32" viewBox="0 0 32 32" fill="none" xmlns="http://www.w3.org/2000/svg">
<path fill-rule="evenodd" clip-rule="evenodd" d="M21.25 11.3333C21.25 12.8362 20.653 14.2776 19.5903 15.3403C18.5276 16.403 17.0862 17 15.5833 17C14.0804 17 12.6391 16.403 11.5764 15.3403C10.5137 14.2776 9.91667 12.8362 9.91667 11.3333C9.91667 9.83044 10.5137 8.3891 11.5764 7.32639C12.6391 6.26369 14.0804 5.66667 15.5833 5.66667C17.0862 5.66667 18.5276 6.26369 19.5903 7.32639C20.653 8.3891 21.25 9.83044 21.25 11.3333ZM18.4167 11.3333C18.4167 12.0848 18.1182 12.8054 17.5868 13.3368C17.0554 13.8682 16.3348 14.1667 15.5833 14.1667C14.8319 14.1667 14.1112 13.8682 13.5799 13.3368C13.0485 12.8054 12.75 12.0848 12.75 11.3333C12.75 10.5819 13.0485 9.86122 13.5799 9.32986C14.1112 8.79851 14.8319 8.5 15.5833 8.5C16.3348 8.5 17.0554 8.79851 17.5868 9.32986C18.1182 9.86122 18.4167 10.5819 18.4167 11.3333Z" fill="white"/>
<path fill-rule="evenodd" clip-rule="evenodd" d="M15.5833 0C6.97708 0 0 6.97708 0 15.5833C0 24.1896 6.97708 31.1667 15.5833 31.1667C24.1896 31.1667 31.1667 24.1896 31.1667 15.5833C31.1667 6.97708 24.1896 0 15.5833 0ZM2.83333 15.5833C2.83333 18.5442 3.84342 21.2698 5.53633 23.4345C6.72524 21.8732 8.25902 20.6079 10.0179 19.7374C11.7767 18.867 13.713 18.415 15.6754 18.4167C17.6125 18.4148 19.5244 18.8552 21.2655 19.7041C23.0066 20.5531 24.5309 21.7882 25.7224 23.3155C26.9499 21.7056 27.7764 19.8266 28.1334 17.8338C28.4905 15.8411 28.3679 13.792 27.7759 11.8561C27.1838 9.92011 26.1392 8.15298 24.7286 6.70089C23.318 5.24879 21.5819 4.15347 19.6639 3.50555C17.7459 2.85764 15.7012 2.67576 13.699 2.97496C11.6967 3.27416 9.79454 4.04585 8.14976 5.22616C6.50497 6.40647 5.1649 7.96148 4.24041 9.76253C3.31592 11.5636 2.83359 13.5589 2.83333 15.5833ZM15.5833 28.3333C12.6564 28.3377 9.81788 27.3308 7.548 25.483C8.46165 24.175 9.67773 23.1071 11.0928 22.3701C12.5078 21.6331 14.0799 21.2489 15.6754 21.25C17.251 21.2487 18.8041 21.6234 20.2058 22.3428C21.6075 23.0623 22.8174 24.1058 23.7348 25.3867C21.4473 27.2945 18.562 28.3375 15.5833 28.3333Z" fill="white"/>
</svg>
