<svg width="27" height="27" viewBox="0 0 27 27" fill="none" xmlns="http://www.w3.org/2000/svg">
<path d="M25.0394 26.0708L15.3855 16.4168C14.6146 17.0736 13.7282 17.5818 12.7261 17.9415C11.724 18.3013 10.7168 18.4811 9.70442 18.4811C7.23569 18.4811 5.14622 17.6265 3.436 15.9173C1.72578 14.2071 0.870667 12.1182 0.870667 9.65046C0.870667 7.18277 1.72475 5.09278 3.43292 3.38051C5.14211 1.6672 7.23056 0.810547 9.69825 0.810547C12.167 0.810547 14.2575 1.66566 15.9698 3.37588C17.682 5.0861 18.5382 7.17609 18.5382 9.64584C18.5382 10.7168 18.3485 11.7533 17.9693 12.7554C17.589 13.7575 17.0905 14.6146 16.4739 15.3269L26.1278 24.9793L25.0378 26.0708H25.0394ZM9.70442 16.9379C11.7497 16.9379 13.4769 16.2339 14.886 14.8258C16.294 13.4178 16.998 11.6906 16.998 9.6443C16.998 7.59902 16.294 5.87235 14.886 4.4643C13.4779 3.05624 11.7512 2.35221 9.70596 2.35221C7.66068 2.35221 5.9335 3.05624 4.52442 4.4643C3.11636 5.87235 2.41233 7.59902 2.41233 9.6443C2.41233 11.6896 3.11636 13.4162 4.52442 14.8243C5.93247 16.2324 7.65914 16.9379 9.70442 16.9379Z" fill="white"/>
</svg>
